<?xml version="1.0" encoding="UTF-8" standalone="no"?>
<!-- Created with Inkscape (http://www.inkscape.org/) -->

<svg
   xmlns:dc="http://purl.org/dc/elements/1.1/"
   xmlns:cc="http://creativecommons.org/ns#"
   xmlns:rdf="http://www.w3.org/1999/02/22-rdf-syntax-ns#"
   xmlns:svg="http://www.w3.org/2000/svg"
   xmlns="http://www.w3.org/2000/svg"
   xmlns:sodipodi="http://sodipodi.sourceforge.net/DTD/sodipodi-0.dtd"
   xmlns:inkscape="http://www.inkscape.org/namespaces/inkscape"
   width="27.000002mm"
   height="26.701042mm"
   viewBox="0 0 27.000002 26.701042"
   version="1.1"
   id="svg8"
   inkscape:version="0.92.3 (2405546, 2018-03-11)"
   sodipodi:docname="drawing.svg">
  <defs
     id="defs2" />
  <sodipodi:namedview
     id="base"
     pagecolor="#ffffff"
     bordercolor="#666666"
     borderopacity="1.0"
     inkscape:pageopacity="0.0"
     inkscape:pageshadow="2"
     inkscape:zoom="5.6"
     inkscape:cx="60.566752"
     inkscape:cy="43.418215"
     inkscape:document-units="mm"
     inkscape:current-layer="layer1"
     showgrid="false"
     fit-margin-top="1"
     fit-margin-left="1"
     fit-margin-right="1"
     fit-margin-bottom="1"
     inkscape:snap-nodes="true"
     inkscape:snap-global="true"
     inkscape:snap-intersection-paths="true"
     inkscape:window-width="1370"
     inkscape:window-height="851"
     inkscape:window-x="4203"
     inkscape:window-y="151"
     inkscape:window-maximized="0" />
  <metadata
     id="metadata5">
    <rdf:RDF>
      <cc:Work
         rdf:about="">
        <dc:format>image/svg+xml</dc:format>
        <dc:type
           rdf:resource="http://purl.org/dc/dcmitype/StillImage" />
        <dc:title></dc:title>
      </cc:Work>
    </rdf:RDF>
  </metadata>
  <g
     inkscape:label="Layer 1"
     inkscape:groupmode="layer"
     id="layer1"
     transform="translate(48.555017,-273.52967)">
    <g
       id="g4872"
       transform="matrix(0.08193765,0,0,0.08193765,-43.658472,274.74804)"
       style="stroke-width:12.20440292">
      <path
         id="path4759"
         transform="matrix(0.26458333,0,0,0.26458333,-70.349992,-26.837989)"
         d="M 86.154297,94.488281 V 1196.6426 c 200.731533,102.9539 304.488943,-125.421 541.585933,34.1015 h 70 c 237.09699,-159.5225 340.85437,68.8524 541.58597,-34.1015 V 94.488281 C 1042.6352,206.96103 914.63417,32.550692 697.74023,145.02344 h -70 C 410.84627,32.550692 282.84521,206.96103 86.154297,94.488281 Z"
         style="opacity:0.98000004;fill:#0082c9;fill-opacity:1;stroke:none;stroke-width:0;stroke-linecap:round;stroke-linejoin:round;stroke-miterlimit:4;stroke-dasharray:none;stroke-dashoffset:0;stroke-opacity:1"
         inkscape:connector-curvature="0" />
      <path
         inkscape:connector-curvature="0"
         style="opacity:0.98000004;fill:#ffffff;fill-opacity:1;stroke:none;stroke-width:0;stroke-linecap:round;stroke-linejoin:round;stroke-miterlimit:4;stroke-dasharray:none;stroke-dashoffset:0;stroke-opacity:1"
         d="M -43.023964,-2.6650609 V 280.28546 C 8.5088273,306.7163 35.145943,248.08677 96.014653,289.04018 H 113.9854 c 60.86871,-40.95341 87.50582,17.67612 139.03863,-8.75472 V -2.6650609 C 202.52854,26.209502 169.66749,-18.565982 113.9854,10.308574 H 96.014653 C 40.332565,-18.565982 7.4714994,26.209502 -43.023964,-2.6650609 Z"
         id="path4766" />
      <path
         id="path4768"
         d="M -38.627503,-0.97892618 V 273.56766 c 50.002215,25.64582 75.848182,-31.24235 134.909031,8.4947 h 17.436992 c 59.06085,-39.73705 84.90682,17.15112 134.90905,-8.4947 V -0.97892618 C 199.63184,27.038032 167.7468,-16.407576 113.71852,11.609378 H 96.281528 C 42.253254,-16.407576 10.368194,27.038032 -38.627503,-0.97892618 Z"
         style="opacity:0.98000004;fill:#0082c9;fill-opacity:1;stroke:none;stroke-width:0;stroke-linecap:round;stroke-linejoin:round;stroke-miterlimit:4;stroke-dasharray:none;stroke-dashoffset:0;stroke-opacity:1"
         inkscape:connector-curvature="0" />
      <path
         transform="matrix(0.26458333,0,0,0.26458333,-70.349992,-26.837989)"
         id="path4845"
         d="m 667.57031,940.69727 c -1.93972,0.0379 -3.87844,0.12922 -5.81836,0.1289 -1.28109,-2.1e-4 -2.56092,-0.069 -3.84179,-0.0859 v 203.57813 h 9.66015 z"
         style="opacity:0.98000004;fill:#ffffff;fill-opacity:1;stroke:none;stroke-width:0;stroke-linecap:round;stroke-linejoin:round;stroke-miterlimit:4;stroke-dasharray:none;stroke-dashoffset:0;stroke-opacity:1"
         inkscape:connector-curvature="0" />
      <path
         transform="matrix(0.26458333,0,0,0.26458333,-70.349992,-26.837989)"
         id="path4840"
         d="m 665.2793,492.57031 c -2.46001,-0.0313 -4.91511,0.0378 -7.36914,0.125 V 832.7793 c 0.70693,0.0197 1.41439,0.084 2.12109,0.0937 2.5162,0.0347 5.02839,-0.0311 7.53906,-0.1211 V 492.66797 c -0.76348,-0.0213 -1.52787,-0.0879 -2.29101,-0.0977 z"
         style="opacity:0.98000004;fill:#ffffff;fill-opacity:1;stroke:none;stroke-width:0;stroke-linecap:round;stroke-linejoin:round;stroke-miterlimit:4;stroke-dasharray:none;stroke-dashoffset:0;stroke-opacity:1"
         inkscape:connector-curvature="0" />
      <path
         transform="matrix(0.26458333,0,0,0.26458333,-70.349992,-26.837989)"
         id="rect4772"
         d="m 657.91016,152.49219 v 231.58789 c 3.22235,-0.0824 6.44344,-0.13905 9.66015,-0.0977 V 152.49219 Z"
         style="opacity:0.98000004;fill:#ffffff;fill-opacity:1;stroke:none;stroke-width:0;stroke-linecap:round;stroke-linejoin:round;stroke-miterlimit:4;stroke-dasharray:none;stroke-dashoffset:0;stroke-opacity:1"
         inkscape:connector-curvature="0" />
      <path
         style="fill:#ffffff;stroke-width:3.22908139"
         inkscape:connector-curvature="0"
         id="path2"
         d="m 172.73328,148.50017 h 25.4 l -33.86656,-33.86688 -33.86655,33.86688 h 25.39999 c 0,28.02464 -22.77535,50.8 -50.79998,50.8 -8.551351,0 -16.679351,-2.1152 -23.706871,-5.92672 l -12.36128,12.36128 c 10.41408,6.60416 22.77536,10.49856 36.068151,10.49856 37.4227,0 67.7331,-30.3104 67.7331,-67.73312 z m -118.533091,0 c 0,-28.02464 22.77536,-50.800002 50.799991,-50.800002 8.55136,0 16.67935,2.1152 23.70655,5.926722 L 141.068,91.265288 c -10.41375,-6.60384 -22.77534,-10.49856 -36.06782,-10.49856 -37.422711,0 -67.73343,30.310722 -67.73343,67.733442 H 11.866751 l 33.866559,33.86656 33.866879,-33.86656 z" />
    </g>
  </g>
</svg>
